<?xml version="1.0" encoding="utf-8"?>
<!-- Generator: Adobe Illustrator 25.0.1, SVG Export Plug-In . SVG Version: 6.00 Build 0)  -->
<svg version="1.1" id="圖層_1" xmlns="http://www.w3.org/2000/svg" xmlns:xlink="http://www.w3.org/1999/xlink" x="0px" y="0px"
	 viewBox="0 0 186.9 150.1" style="enable-background:new 0 0 186.9 150.1;" xml:space="preserve">
<style type="text/css">
	.st0{fill:#FFFFFF;}
</style>
<path d="M90.7,127.7c-19.7,0-39.5,0-59.2,0c-10.3,0-14.6-4.3-14.6-14.6c0-26.1,0-52.3,0-78.4c0-10.5,4.3-14.7,14.9-14.7
	c39.6,0,79.2,0,118.9,0c9.7,0,14.3,4.6,14.3,14.2c0,26.5,0,53,0,79.5c0,9.4-4.6,13.9-14.1,14C130.7,127.7,110.7,127.7,90.7,127.7z
	 M91,125.5c19.7,0,39.5,0,59.2,0c8.7,0,12.3-3.5,12.3-12.2c0-26.2,0-52.5,0-78.7c0-8.7-3.6-12.3-12.3-12.3c-39.7,0-79.5,0-119.2,0
	c-8.2,0-11.9,3.7-11.9,11.9c0,26.5,0,53,0,79.5c0,8.3,3.6,11.9,11.9,11.9C51,125.5,71,125.5,91,125.5z"/>
<path class="st0" d="M91,125.5c-20,0-40,0-60,0c-8.3,0-11.9-3.6-11.9-11.9c0-26.5,0-53,0-79.5c0-8.2,3.7-11.9,11.9-11.9
	c39.7,0,79.5,0,119.2,0c8.7,0,12.3,3.6,12.3,12.3c0,26.2,0,52.5,0,78.7c0,8.7-3.6,12.2-12.3,12.2C130.5,125.5,110.7,125.5,91,125.5z
	 M156.7,92.2c0-1.3,0-2.5,0-3.7c0-17.1,0-34.3,0-51.4c0-7.1-2-9.2-9.1-9.2c-38,0-76,0-114,0c-6.6,0-8.8,2.2-8.8,8.8
	c0,17.3,0,34.5,0,51.8c0,1.3,0.1,2.6,0.2,4.2c2,0,3.6,0,5.5,0c0.6,3.3,1.3,6.5,1.9,9.6c0.2,0,0.4,0,0.6,0
	c1.8-14.7,3.6-29.4,5.4-44.1c0.3,0,0.5,0.1,0.8,0.1c1.4,10.9,2.8,21.9,4.2,32.8c0.2,0,0.4,0.1,0.6,0.1c1.1-2.9,2.2-5.8,3.4-8.7
	c0.2,0,0.5,0.1,0.7,0.1c1.1,4.4,2.3,8.8,3.4,13.1c0.2,0,0.5,0,0.7,0c1.4-7,2.9-14.1,4.3-21.1c0.3,0,0.5,0.1,0.8,0.1c1,6,2,12,3.1,18
	c0.4,0,0.8,0,1.1,0c4.5-10.9,8.1-22.2,9.9-34.9c1.7,2.3,2.7,3.8,4.3,6c2.2-4.6,4.1-8.6,5.9-12.7c1.6-3.5,2.3-3.6,4.8-0.7
	c1.8,2,3.7,3.9,6.1,6.4c0.9-2.3,1.3-3.4,1.9-4.5c2.8-6.1,5.7-12.2,8.6-18.2c1.3-2.6,3-3.1,4.4-0.1c1.8,4.1,3.4,8.2,5,12.4
	c0.9,2.5,1.6,5.2,2.5,8.5c1.8-2.1,2.8-3.2,4.4-5.1c5.1,11.5,6.2,23.3,8.8,34.2c5.3-0.1,3.3,5.9,6.9,7.2c1-10.7,1.9-21.3,2.8-31.9
	c0.2,0,0.4,0,0.7,0c1.6,12.8,3.3,25.6,4.9,38.4c0.3,0,0.6,0,0.8,0c1.1-7.5,2.3-15.1,3.4-22.6c1.9,4.7,3.1,9.4,4.1,14.3
	C152.4,92.1,153.5,93.3,156.7,92.2z M149,83.6c-0.2,0-0.4,0-0.7,0c-1.3,9-2.7,18-4,27c-0.3,0-0.6,0-0.8,0
	c-1.4-12.2-2.9-24.3-4.3-36.5c-0.3,0-0.6,0-0.8,0.1c-0.6,6.7-1.3,13.3-1.9,20c-0.4,0.2-0.8,0.4-1.2,0.6c-1-1.3-2.3-2.4-2.9-3.8
	c-1-2.4-2-4.3-5-3c-3.2-7.8-6.3-15.4-9.4-23.1c-1.4,0.9-2.3,1.6-3.3,2.2c-2.3-5.2-4.5-10-6.8-15.1c-0.8,0.9-1.3,1.5-1.9,2.3
	c-1.2-1.3-2.2-2.4-3.5-3.8c-2.5,7.4-4.8,14.5-7.2,21.5c-0.3-0.1-0.7-0.1-1-0.2c-1.3-4-2.7-7.9-4.1-12.2c-1.4,1.3-2.5,2.2-3.7,3.3
	c-1.2-2-2.2-3.7-3.3-5.5c-0.4,0-0.8,0-1.2,0c-1.9,7.2-3.8,14.4-5.9,22c-1.3-2.7-2.5-5-4-8.1c-2.7,7.1-5.3,13.2-7.3,19.4
	c-1,3-2.3,4.2-5.5,3.1c-0.7-4-1.3-8.1-2-12.1c-0.2,0-0.5,0.1-0.7,0.1c-1.3,6.8-2.5,13.7-3.8,20.5c-0.2,0-0.5-0.1-0.7-0.1
	c-1.3-4.9-2.6-9.8-4.2-15.7c-1.8,4.4-3.1,7.8-4.5,11.3c-0.2,0-0.4-0.1-0.6-0.1c-1.1-9.4-2.3-18.8-3.4-28.3c-0.3,0-0.5,0-0.8,0
	c-1.7,14.5-3.5,28.9-5.2,43.4c-0.3,0-0.6,0-0.8-0.1c-1-6.1-1.9-12.3-2.9-18.3c-1.7,0-3,0-4.2,0c-0.1,0.6-0.3,1-0.3,1.3
	c0,5.4-0.1,10.8,0,16.1c0,6.7,2.1,8.7,8.7,8.7c38,0,76,0,114,0c1,0,2,0.1,3,0c3.3-0.3,5.7-2.2,5.8-5.3c0.3-6.9,0.1-13.9,0.1-21.1
	c-1.8,0-3.3,0-5,0C150.7,90.6,149.9,87.1,149,83.6z"/>
<path d="M156.7,92.2c-3.3,1-4.3-0.2-4.8-2.8c-0.9-4.8-2.1-9.6-4.1-14.3c-1.1,7.5-2.3,15.1-3.4,22.6c-0.3,0-0.6,0-0.8,0
	c-1.6-12.8-3.3-25.6-4.9-38.4c-0.2,0-0.4,0-0.7,0c-0.9,10.6-1.9,21.2-2.8,31.9c-3.5-1.3-1.6-7.3-6.9-7.2
	c-2.6-10.9-3.7-22.7-8.8-34.2c-1.7,1.9-2.6,3-4.4,5.1c-1-3.3-1.6-6-2.5-8.5c-1.5-4.2-3.1-8.3-5-12.4c-1.4-3-3.1-2.5-4.4,0.1
	c-2.9,6-5.8,12.2-8.6,18.2c-0.5,1.1-0.9,2.3-1.9,4.5c-2.4-2.5-4.3-4.3-6.1-6.4c-2.5-2.9-3.2-2.8-4.8,0.7c-1.9,4.1-3.8,8.1-5.9,12.7
	c-1.6-2.2-2.7-3.7-4.3-6c-1.8,12.7-5.4,23.9-9.9,34.9c-0.4,0-0.8,0-1.1,0c-1-6-2-12-3.1-18c-0.3,0-0.5-0.1-0.8-0.1
	c-1.4,7-2.9,14.1-4.3,21.1c-0.2,0-0.5,0-0.7,0c-1.1-4.4-2.3-8.8-3.4-13.1c-0.2,0-0.5-0.1-0.7-0.1c-1.1,2.9-2.2,5.8-3.4,8.7
	c-0.2,0-0.4-0.1-0.6-0.1c-1.4-10.9-2.8-21.9-4.2-32.8c-0.3,0-0.5-0.1-0.8-0.1c-1.8,14.7-3.6,29.4-5.4,44.1c-0.2,0-0.4,0-0.6,0
	c-0.6-3.2-1.2-6.3-1.9-9.6c-1.8,0-3.4,0-5.5,0c-0.1-1.5-0.2-2.8-0.2-4.2c0-17.3,0-34.5,0-51.8c0-6.6,2.2-8.8,8.8-8.8
	c38,0,76,0,114,0c7.1,0,9.1,2,9.1,9.2c0,17.1,0,34.3,0,51.4C156.7,89.8,156.7,91,156.7,92.2z"/>
<path d="M149,83.6c0.9,3.5,1.7,6.9,2.6,10.6c1.7,0,3.2,0,5,0c0,7.2,0.2,14.2-0.1,21.1c-0.2,3.1-2.5,5.1-5.8,5.3c-1,0.1-2,0-3,0
	c-38,0-76,0-114,0c-6.7,0-8.7-2-8.7-8.7c0-5.4,0-10.8,0-16.1c0-0.4,0.1-0.7,0.3-1.3c1.3,0,2.6,0,4.2,0c1,6.1,1.9,12.2,2.9,18.3
	c0.3,0,0.6,0,0.8,0.1c1.7-14.5,3.5-28.9,5.2-43.4c0.3,0,0.5,0,0.8,0c1.1,9.4,2.3,18.8,3.4,28.3c0.2,0,0.4,0.1,0.6,0.1
	c1.4-3.4,2.7-6.9,4.5-11.3c1.6,5.9,2.9,10.8,4.2,15.7c0.2,0,0.5,0.1,0.7,0.1c1.3-6.8,2.5-13.7,3.8-20.5c0.2,0,0.5-0.1,0.7-0.1
	c0.7,4.1,1.3,8.1,2,12.1c3.2,1.1,4.5-0.1,5.5-3.1c2-6.3,4.6-12.4,7.3-19.4c1.5,3.1,2.7,5.4,4,8.1c2-7.6,4-14.8,5.9-22
	c0.4,0,0.8,0,1.2,0c1,1.7,2.1,3.5,3.3,5.5c1.2-1.1,2.3-2.1,3.7-3.3c1.4,4.3,2.8,8.2,4.1,12.2c0.3,0.1,0.7,0.1,1,0.2
	c2.3-7,4.7-14.1,7.2-21.5c1.3,1.4,2.3,2.5,3.5,3.8c0.6-0.8,1.2-1.4,1.9-2.3c2.3,5.1,4.5,10,6.8,15.1c1-0.7,2-1.3,3.3-2.2
	c3.1,7.7,6.2,15.2,9.4,23.1c3.1-1.4,4,0.6,5,3c0.6,1.4,1.9,2.5,2.9,3.8c0.4-0.2,0.8-0.4,1.2-0.6c0.6-6.7,1.3-13.3,1.9-20
	c0.3,0,0.6,0,0.8-0.1c1.4,12.2,2.9,24.3,4.3,36.5c0.3,0,0.6,0,0.8,0c1.3-9,2.7-18,4-27C148.5,83.6,148.8,83.6,149,83.6z"/>
</svg>
